<svg width="60" height="60" viewBox="0 0 60 60" fill="none" xmlns="http://www.w3.org/2000/svg">
<path d="M10 50C8.625 50 7.4475 49.51 6.4675 48.53C5.4875 47.55 4.99834 46.3733 5 45V15C5 13.625 5.49 12.4475 6.47 11.4675C7.45 10.4875 8.62667 9.99834 10 10H50C51.375 10 52.5525 10.49 53.5325 11.47C54.5125 12.45 55.0017 13.6267 55 15V45C55 46.375 54.51 47.5525 53.53 48.5325C52.55 49.5125 51.3733 50.0017 50 50H10ZM12.5 42.5H47.5V37.5H12.5V42.5ZM12.5 32.5H47.5V27.5H12.5V32.5ZM12.5 22.5H37.5V17.5H12.5V22.5Z" fill="#FFCD00"/>
</svg>
