<svg width="60" height="60" viewBox="0 0 60 60" fill="none" xmlns="http://www.w3.org/2000/svg">
<path d="M42.5 52.5L35.625 45L38.525 42.1L42.5 46.075L51.475 37.1L54.375 40.625M32 52.5H12.5C9.725 52.5 7.5 50.275 7.5 47.5V12.5C7.5 9.725 9.725 7.5 12.5 7.5H47.5C50.275 7.5 52.5 9.725 52.5 12.5V32C50.975 31.125 49.3 30.5 47.5 30.2V12.5H12.5V47.5H30.2C30.5 49.3 31.125 50.975 32 52.5ZM30 42.5H17.5V37.5H30M36.7 32.5H17.5V27.5H42.5V30.2C40.375 30.55 38.425 31.35 36.7 32.5ZM42.5 22.5H17.5V17.5H42.5" fill="#FFCD00"/>
</svg>
