<svg width="60" height="60" viewBox="0 0 60 60" fill="none" xmlns="http://www.w3.org/2000/svg">
<path d="M25 40.0002H35C36.375 40.0002 37.5 38.8752 37.5 37.5002V25.0002H41.475C43.7 25.0002 44.825 22.3002 43.25 20.7252L31.775 9.25015C31.5437 9.01839 31.269 8.83453 30.9666 8.70907C30.6641 8.58362 30.3399 8.51904 30.0125 8.51904C29.6851 8.51904 29.3609 8.58362 29.0584 8.70907C28.756 8.83453 28.4813 9.01839 28.25 9.25015L16.775 20.7252C15.2 22.3002 16.3 25.0002 18.525 25.0002H22.5V37.5002C22.5 38.8752 23.625 40.0002 25 40.0002ZM15 45.0002H45C46.375 45.0002 47.5 46.1252 47.5 47.5002C47.5 48.8752 46.375 50.0002 45 50.0002H15C13.625 50.0002 12.5 48.8752 12.5 47.5002C12.5 46.1252 13.625 45.0002 15 45.0002Z" fill="#FFCD00"/>
</svg>
