<svg width="53" height="52" viewBox="0 0 53 52" fill="none" xmlns="http://www.w3.org/2000/svg">
<path d="M26.5986 34.6664V34.6881M43.6611 13.5848C45.1778 14.4471 46.1095 16.0613 46.0986 17.8054V33.5874C46.0986 35.3403 45.1388 36.9566 43.5896 37.8081L28.9646 47.0598C28.2396 47.4578 27.4258 47.6666 26.5986 47.6666C25.7715 47.6666 24.9577 47.4578 24.2326 47.0598L9.60763 37.8081C8.84966 37.3939 8.2169 36.7836 7.77552 36.0411C7.33415 35.2986 7.10037 34.4512 7.09863 33.5874V17.8033C7.09863 16.0504 8.05847 14.4363 9.60763 13.5848L24.2326 4.96143C24.9791 4.54984 25.8177 4.33398 26.6701 4.33398C27.5226 4.33398 28.3611 4.54984 29.1076 4.96143L43.7326 13.5848H43.6611Z" stroke="#FFCD00" stroke-width="2" stroke-linecap="round" stroke-linejoin="round"/>
<path d="M26.5986 28.1666C27.5731 28.1696 28.5201 27.844 29.2867 27.2424C30.0533 26.6409 30.5948 25.7985 30.8237 24.8513C31.0526 23.9041 30.9556 22.9074 30.5483 22.0221C30.141 21.1368 29.4472 20.4147 28.579 19.9723C27.717 19.5308 26.731 19.3939 25.7814 19.5839C24.8317 19.7739 23.9743 20.2796 23.3486 21.0188" stroke="#FFCD00" stroke-width="2" stroke-linecap="round" stroke-linejoin="round"/>
</svg>
