<svg width="60" height="60" viewBox="0 0 60 60" fill="none" xmlns="http://www.w3.org/2000/svg">
<path d="M30 0C24.0666 0 18.2664 1.75947 13.3329 5.05591C8.39943 8.35235 4.55426 13.0377 2.28363 18.5195C0.0129985 24.0013 -0.581101 30.0333 0.576455 35.8527C1.73401 41.6721 4.59123 47.0176 8.78681 51.2132C12.9824 55.4088 18.3279 58.266 24.1473 59.4235C29.9667 60.5811 35.9987 59.987 41.4805 57.7164C46.9623 55.4457 51.6476 51.6006 54.9441 46.6671C58.2405 41.7336 60 35.9334 60 30C59.9916 22.0461 56.8282 14.4203 51.2039 8.79607C45.5797 3.1718 37.9539 0.00839948 30 0ZM22.3933 41.5385H37.6067C36.0577 46.8288 33.4615 51.5971 30 55.3529C26.5385 51.5971 23.9423 46.8288 22.3933 41.5385ZM21.3462 36.9231C20.5808 32.3394 20.5808 27.6606 21.3462 23.0769H38.6539C39.4192 27.6606 39.4192 32.3394 38.6539 36.9231H21.3462ZM4.6154 30C4.61339 27.6589 4.93667 25.329 5.57597 23.0769H16.6702C15.9817 27.6666 15.9817 32.3334 16.6702 36.9231H5.57597C4.93667 34.671 4.61339 32.341 4.6154 30ZM37.6067 18.4615H22.3933C23.9423 13.1712 26.5385 8.40288 30 4.64711C33.4615 8.40288 36.0577 13.1712 37.6067 18.4615ZM43.3298 23.0769H54.424C55.7048 27.6034 55.7048 32.3965 54.424 36.9231H43.3298C44.0183 32.3334 44.0183 27.6666 43.3298 23.0769ZM52.6067 18.4615H42.3865C41.2089 13.8274 39.2311 9.43455 36.5423 5.48077C39.9775 6.4039 43.1814 8.03574 45.948 10.2713C48.7147 12.5069 50.9829 15.2968 52.6067 18.4615ZM23.4577 5.48077C20.7689 9.43455 18.7912 13.8274 17.6135 18.4615H7.39328C9.01711 15.2968 11.2853 12.5069 14.052 10.2713C16.8186 8.03574 20.0226 6.4039 23.4577 5.48077ZM7.39328 41.5385H17.6135C18.7912 46.1726 20.7689 50.5654 23.4577 54.5192C20.0226 53.5961 16.8186 51.9642 14.052 49.7287C11.2853 47.4931 9.01711 44.7032 7.39328 41.5385ZM36.5423 54.5192C39.2311 50.5654 41.2089 46.1726 42.3865 41.5385H52.6067C50.9829 44.7032 48.7147 47.4931 45.948 49.7287C43.1814 51.9642 39.9775 53.5961 36.5423 54.5192Z" fill="#FFCD00"/>
</svg>
