<svg width="60" height="60" viewBox="0 0 60 60" fill="none" xmlns="http://www.w3.org/2000/svg">
<path d="M12.5 22.5C13.8261 22.5 15.0979 21.9732 16.0355 21.0355C16.9732 20.0979 17.5 18.8261 17.5 17.5C17.5 16.1739 16.9732 14.9021 16.0355 13.9645C15.0979 13.0268 13.8261 12.5 12.5 12.5C11.1739 12.5 9.90215 13.0268 8.96447 13.9645C8.02678 14.9021 7.5 16.1739 7.5 17.5C7.5 18.8261 8.02678 20.0979 8.96447 21.0355C9.90215 21.9732 11.1739 22.5 12.5 22.5ZM12.5 22.5V25M12.5 42.5V40" stroke="#FFCD00" stroke-width="2" stroke-linecap="round" stroke-linejoin="round"/>
<path d="M17.5 47.5C17.5 46.1739 16.9732 44.9021 16.0355 43.9645C15.0979 43.0268 13.8261 42.5 12.5 42.5C11.1739 42.5 9.90215 43.0268 8.96447 43.9645C8.02678 44.9021 7.5 46.1739 7.5 47.5C7.5 48.8261 8.02678 50.0979 8.96447 51.0355C9.90215 51.9732 11.1739 52.5 12.5 52.5C13.8261 52.5 15.0979 51.9732 16.0355 51.0355C16.9732 50.0979 17.5 48.8261 17.5 47.5Z" fill="#FFCD00"/>
<path d="M17.5 47.5C17.5 46.1739 16.9732 44.9021 16.0355 43.9645C15.0979 43.0268 13.8261 42.5 12.5 42.5C11.1739 42.5 9.90215 43.0268 8.96447 43.9645C8.02678 44.9021 7.5 46.1739 7.5 47.5C7.5 48.8261 8.02678 50.0979 8.96447 51.0355C9.90215 51.9732 11.1739 52.5 12.5 52.5C13.8261 52.5 15.0979 51.9732 16.0355 51.0355C16.9732 50.0979 17.5 48.8261 17.5 47.5ZM17.5 47.5H20M42.5 42.5C43.4889 42.5 44.4556 42.7932 45.2779 43.3427C46.1001 43.8921 46.741 44.673 47.1194 45.5866C47.4978 46.5002 47.5969 47.5055 47.4039 48.4755C47.211 49.4454 46.7348 50.3363 46.0355 51.0355C45.3363 51.7348 44.4454 52.211 43.4755 52.4039C42.5055 52.5969 41.5002 52.4978 40.5866 52.1194C39.673 51.741 38.8921 51.1001 38.3427 50.2779C37.7932 49.4556 37.5 48.4889 37.5 47.5M42.5 42.5C41.1739 42.5 39.9021 43.0268 38.9645 43.9645C38.0268 44.9021 37.5 46.1739 37.5 47.5M42.5 42.5V40M37.5 47.5H35" stroke="#FFCD00" stroke-width="2" stroke-linecap="round" stroke-linejoin="round"/>
<path d="M12.5 35C13.8807 35 15 33.8807 15 32.5C15 31.1193 13.8807 30 12.5 30C11.1193 30 10 31.1193 10 32.5C10 33.8807 11.1193 35 12.5 35Z" fill="#FFCD00"/>
<path d="M27.5 50C28.8807 50 30 48.8807 30 47.5C30 46.1193 28.8807 45 27.5 45C26.1193 45 25 46.1193 25 47.5C25 48.8807 26.1193 50 27.5 50Z" fill="#FFCD00"/>
<path fill-rule="evenodd" clip-rule="evenodd" d="M42.5 32.5L40.8825 34.4075L40.88 34.4025L40.87 34.3975L40.845 34.3725L40.7475 34.29L40.405 33.9875C38.6963 32.4556 37.0903 30.8129 35.5975 29.07C34.285 27.5275 32.9175 25.7125 31.87 23.7975C30.8375 21.915 30 19.73 30 17.5C30 13.6325 31.345 10.4375 33.725 8.2225C36.0775 6.0325 39.225 5 42.5 5C45.775 5 48.9225 6.0325 51.275 8.2225C53.655 10.4375 55 13.6325 55 17.5C55 19.73 54.1625 21.915 53.13 23.8C52.08 25.7125 50.7175 27.5275 49.405 29.07C47.8118 30.9285 46.0901 32.6728 44.2525 34.29L44.1575 34.3725L44.13 34.3975L44.12 34.4025V34.405H44.1175L42.5 32.5ZM42.5 32.5L44.115 34.4075C43.6636 34.7895 43.0914 34.9992 42.5 34.9992C41.9086 34.9992 41.3339 34.7895 40.8825 34.4075L42.5 32.5ZM42.5 20C43.163 20 43.7989 19.7366 44.2678 19.2678C44.7366 18.7989 45 18.163 45 17.5C45 16.837 44.7366 16.2011 44.2678 15.7322C43.7989 15.2634 43.163 15 42.5 15C41.837 15 41.2011 15.2634 40.7322 15.7322C40.2634 16.2011 40 16.837 40 17.5C40 18.163 40.2634 18.7989 40.7322 19.2678C41.2011 19.7366 41.837 20 42.5 20Z" fill="#FFCD00"/>
</svg>
