<svg width="60" height="60" viewBox="0 0 60 60" fill="none" xmlns="http://www.w3.org/2000/svg">
<path d="M51.1388 8.86127H51.135L57.42 10.1175C57.7575 10.185 58.035 10.4325 58.1325 10.7663C58.1817 10.9284 58.1861 11.1008 58.1452 11.2652C58.1042 11.4297 58.0195 11.5799 57.9 11.7L52.7513 16.8525C52.1352 17.4674 51.3004 17.8127 50.43 17.8125H46.1625L35.4375 28.5413C35.6421 29.3139 35.6797 30.1212 35.5479 30.9094C35.416 31.6977 35.1177 32.4488 34.6728 33.1127C34.2279 33.7767 33.6466 34.3382 32.9676 34.7598C32.2887 35.1815 31.5277 35.4536 30.7353 35.5581C29.943 35.6626 29.1375 35.597 28.3724 35.3658C27.6074 35.1345 26.9004 34.7429 26.2986 34.217C25.6968 33.6911 25.214 33.043 24.8823 32.3158C24.5506 31.5887 24.3777 30.7992 24.375 30C24.3756 29.1371 24.5745 28.2859 24.9565 27.5121C25.3385 26.7384 25.8932 26.0628 26.5779 25.5376C27.2626 25.0124 28.0588 24.6516 28.9051 24.4832C29.7515 24.3148 30.6252 24.3432 31.4587 24.5663L42.1875 13.8338V9.57002C42.1875 8.70002 42.5325 7.86377 43.1475 7.24877L48.3 2.09627C48.4201 1.97675 48.5704 1.89202 48.7348 1.85108C48.8992 1.81014 49.0716 1.81453 49.2337 1.86377C49.5675 1.96127 49.815 2.23877 49.8825 2.57627L51.1388 8.86127Z" fill="#FFCD00"/>
<path d="M7.49961 30C7.50346 33.2173 8.19727 36.3964 9.53424 39.3229C10.8712 42.2493 12.8202 44.8549 15.2498 46.9641C17.6794 49.0732 20.5331 50.6367 23.6184 51.5492C26.7036 52.4617 29.9487 52.7018 33.1347 52.2536C36.3206 51.8053 39.3734 50.6789 42.0871 48.9505C44.8007 47.222 47.1121 44.9317 48.8654 42.2341C50.6186 39.5364 51.7729 36.4941 52.2504 33.3123C52.7279 30.1306 52.5175 26.8835 51.6334 23.79C51.5092 23.4286 51.4599 23.0457 51.4885 22.6646C51.5171 22.2835 51.6229 21.9123 51.7995 21.5734C51.9762 21.2345 52.2199 20.9352 52.516 20.6935C52.812 20.4519 53.1541 20.273 53.5215 20.1678C53.8888 20.0625 54.2738 20.0332 54.6528 20.0815C55.0319 20.1298 55.3972 20.2547 55.7264 20.4487C56.0557 20.6427 56.342 20.9016 56.568 21.2098C56.7939 21.518 56.9548 21.8689 57.0409 22.2412C58.7528 28.232 58.4276 34.6215 56.1163 40.4075C53.805 46.1934 49.6383 51.0484 44.2699 54.2108C38.9015 57.3731 32.6353 58.6638 26.4542 57.8805C20.2731 57.0971 14.5269 54.284 10.1171 49.8825C5.71214 45.4738 2.89602 39.7271 2.11087 33.5445C1.32573 27.362 2.61603 21.0938 5.7792 15.724C8.94236 10.3542 13.7993 6.18697 19.5873 3.87651C25.3754 1.56605 31.7669 1.24323 37.7584 2.95873C38.4718 3.16728 39.0736 3.64974 39.4324 4.30068C39.7912 4.95162 39.8777 5.71811 39.673 6.43264C39.4684 7.14718 38.9892 7.75165 38.3402 8.11397C37.6913 8.47628 36.9253 8.56698 36.2096 8.36623C32.8593 7.40498 29.3315 7.2351 25.9043 7.86998C22.4771 8.50486 19.2443 9.92715 16.4606 12.0247C13.6769 14.1223 11.4185 16.8378 9.86346 19.9572C8.3084 23.0765 7.49919 26.5145 7.49961 30Z" fill="#FFCD00"/>
<path d="M18.7498 30C18.7501 32.0497 19.3099 34.0605 20.369 35.8154C21.428 37.5703 22.9461 39.0028 24.7595 39.9583C26.5729 40.9138 28.6127 41.356 30.659 41.2374C32.7052 41.1188 34.6803 40.4437 36.3711 39.285C38.0616 38.1234 39.4023 36.5217 40.2483 34.6532C41.0943 32.7847 41.4134 30.7205 41.1711 28.6838C41.1055 28.1895 41.1729 27.6867 41.3663 27.2272C41.5596 26.7676 41.872 26.3679 42.2712 26.0692C42.6703 25.7705 43.1419 25.5836 43.6373 25.5277C44.1328 25.4718 44.6342 25.549 45.0898 25.7513C45.5454 25.9509 45.9399 26.2678 46.2331 26.6697C46.5262 27.0715 46.7076 27.544 46.7586 28.0388C47.1661 31.5191 46.48 35.04 44.7955 38.1128C43.1111 41.1855 40.5119 43.6577 37.3586 45.1861C34.2054 46.7146 30.6546 47.2235 27.1989 46.6422C23.7433 46.061 20.5544 44.4184 18.0747 41.9425C15.595 39.4666 13.9476 36.2801 13.3611 32.8254C12.7746 29.3707 13.2781 25.8191 14.8018 22.6635C16.3254 19.5079 18.7936 16.905 21.8638 15.2159C24.934 13.5268 28.4538 12.8353 31.9348 13.2375C32.3076 13.2721 32.6697 13.3807 32.9999 13.5571C33.3301 13.7334 33.6217 13.9739 33.8578 14.2644C34.0938 14.5549 34.2695 14.8896 34.3745 15.2489C34.4796 15.6082 34.5118 15.9849 34.4694 16.3568C34.4269 16.7287 34.3107 17.0884 34.1274 17.4148C33.9442 17.7412 33.6976 18.0278 33.4022 18.2577C33.1067 18.4875 32.7684 18.6561 32.407 18.7536C32.0455 18.851 31.6683 18.8753 31.2973 18.825C29.7211 18.642 28.1239 18.7945 26.6107 19.2726C25.0976 19.7506 23.7027 20.5434 22.5176 21.5988C21.3326 22.6542 20.3843 23.9484 19.7349 25.3963C19.0855 26.8442 18.7498 28.4131 18.7498 30Z" fill="#FFCD00"/>
</svg>
