<svg width="60" height="60" viewBox="0 0 60 60" fill="none" xmlns="http://www.w3.org/2000/svg">
<path d="M58.3095 14.5779L45.4188 1.68919C44.337 0.607602 42.8699 0 41.3402 0C39.8105 0 38.3434 0.607602 37.2615 1.68919L1.69032 37.2601C1.15279 37.7944 0.726606 38.43 0.436459 39.1302C0.146313 39.8303 -0.00203118 40.5811 2.10045e-05 41.339V54.2307C2.10045e-05 55.7608 0.607817 57.2282 1.6897 58.3102C2.77159 59.3922 4.23894 60 5.76895 60H54.228C55.146 60 56.0264 59.6353 56.6755 58.9861C57.3246 58.3369 57.6893 57.4565 57.6893 56.5384C57.6893 55.6203 57.3246 54.7398 56.6755 54.0907C56.0264 53.4415 55.146 53.0768 54.228 53.0768H27.9793L58.3095 22.7387C58.8454 22.2029 59.2706 21.5668 59.5606 20.8667C59.8507 20.1665 60 19.4161 60 18.6583C60 17.9004 59.8507 17.15 59.5606 16.4499C59.2706 15.7498 58.8454 15.1137 58.3095 14.5779ZM18.1722 53.0768H6.92274V41.8265L31.1522 17.5953L42.4017 28.8455L18.1722 53.0768ZM47.3053 23.9416L36.0558 12.6913L41.3459 7.40084L52.5954 18.6511L47.3053 23.9416Z" fill="#FFCD00"/>
</svg>
