<svg width="60" height="60" viewBox="0 0 60 60" fill="none" xmlns="http://www.w3.org/2000/svg">
<path d="M28.0685 51.0797C27.9671 51.4853 27.7331 51.8454 27.4035 52.1028C27.074 52.3601 26.6679 52.5 26.2498 52.5C26.0918 52.5008 25.9344 52.4819 25.781 52.4438L18.281 50.5688C18.0722 50.5163 17.874 50.4283 17.6951 50.3086L12.0701 46.5586C11.6564 46.2826 11.3693 45.8536 11.272 45.3659C11.1746 44.8783 11.275 44.3719 11.551 43.9582C11.827 43.5445 12.256 43.2574 12.7436 43.1601C13.2313 43.0627 13.7377 43.1631 14.1514 43.4391L19.5045 47.0086L26.6904 48.8063C26.9305 48.8645 27.1567 48.9696 27.3561 49.1155C27.5554 49.2614 27.724 49.4453 27.852 49.6565C27.9801 49.8678 28.0652 50.1023 28.1023 50.3465C28.1395 50.5907 28.128 50.8399 28.0685 51.0797ZM59.1678 28.4719C59.0139 28.9392 58.769 29.3714 58.4472 29.7435C58.1254 30.1156 57.733 30.4202 57.2928 30.6399L51.7428 33.4149L48.2084 36.9516L38.8334 46.3266C38.6043 46.5555 38.3198 46.7211 38.0076 46.8074C37.6954 46.8936 37.3663 46.8975 37.0521 46.8188L22.0521 43.0688C21.824 43.0115 21.6086 42.9121 21.417 42.7758L8.40448 33.4852L2.71385 30.6399C1.82448 30.1953 1.14809 29.4157 0.833398 28.4725C0.518707 27.5293 0.591484 26.4997 1.03573 25.6102L6.85994 13.9641C7.30454 13.0747 8.08414 12.3983 9.02733 12.0836C9.97053 11.7689 11.0001 11.8417 11.8896 12.286L17.0599 14.8641L29.4818 11.3156C29.8188 11.2192 30.1761 11.2192 30.5131 11.3156L42.9349 14.8641L48.1053 12.286C48.9948 11.8417 50.0244 11.7689 50.9676 12.0836C51.9107 12.3983 52.6904 13.0747 53.1349 13.9641L58.9592 25.6102C59.1813 26.0497 59.3141 26.529 59.3499 27.0202C59.3857 27.5113 59.3238 28.0048 59.1678 28.4719ZM44.0623 35.7797L37.5678 30.5789C32.9881 34.3289 27.1732 34.8235 22.3545 31.7508C21.8805 31.4493 21.4803 31.0451 21.1834 30.5682C20.8866 30.0912 20.7007 29.5537 20.6395 28.9952C20.5783 28.4368 20.6434 27.8717 20.8298 27.3418C21.0163 26.8119 21.3195 26.3306 21.717 25.9336C21.7226 25.9268 21.7289 25.9205 21.7357 25.9149L32.2498 15.7172L29.9998 15.075L18.1826 18.4524L11.7678 31.2797L23.299 39.518L36.9256 42.9235L44.0623 35.7797ZM48.3373 31.5047L41.967 18.75H34.5092L24.3748 28.5938C27.342 30.4899 31.9943 31.0125 36.1685 26.8055C36.4945 26.4769 36.9306 26.2805 37.3927 26.2541C37.8548 26.2277 38.3104 26.3732 38.6717 26.6625L46.7365 33.1242L48.3373 31.5047Z" fill="#FFCD00"/>
</svg>
