<svg width="60" height="60" viewBox="0 0 60 60" fill="none" xmlns="http://www.w3.org/2000/svg">
<path d="M43.9961 38.6945H41.2158L40.2304 37.7448C42.4298 35.1912 44.0372 32.1833 44.9377 28.9363C45.8381 25.6894 46.0093 22.2837 45.439 18.9629C43.7849 9.185 35.6202 1.37678 25.7662 0.180924C22.3019 -0.25709 18.7832 0.102742 15.4794 1.23289C12.1757 2.36303 9.17436 4.23353 6.70518 6.70125C4.23601 9.16898 2.36441 12.1685 1.23361 15.4704C0.102803 18.7722 -0.25724 22.2888 0.181031 25.7511C1.37759 35.5993 9.19039 43.7593 18.974 45.4123C22.2967 45.9823 25.7045 45.8112 28.9533 44.9113C32.2022 44.0114 35.2118 42.4049 37.7669 40.2069L38.7172 41.1917V43.9703L53.6741 58.9185C55.117 60.3605 57.4749 60.3605 58.9178 58.9185C60.3607 57.4764 60.3607 55.1199 58.9178 53.6778L43.9961 38.6945ZM22.8804 38.6945C14.1174 38.6945 7.04363 31.6248 7.04363 22.867C7.04363 14.1091 14.1174 7.0395 22.8804 7.0395C31.6434 7.0395 38.7172 14.1091 38.7172 22.867C38.7172 31.6248 31.6434 38.6945 22.8804 38.6945Z" fill="#FFCD00"/>
</svg>
